{
.appVersion = "895";
copyright = "Copyright 2016 Google Inc. All Rights Reserved.";
customParameters = (
{
name = description;
value = "Data unhinted. Designed by Monotype design team.";
},
{
name = license;
value = "This Font Software is licensed under the SIL Open Font License, Version 1.1. This Font Software is distributed on an \"AS IS\" BASIS, WITHOUT WARRANTIES OR CONDITIONS OF ANY KIND, either express or implied. See the SIL Open Font License for the specific language, permissions and limitations governing your use of this Font Software.";
},
{
name = licenseURL;
value = "http://scripts.sil.org/OFL";
},
{
name = vendorID;
value = GOOG;
},
{
name = panose;
value = (
2,
11,
5,
2,
4,
5,
4,
2,
2,
4
);
},
{
name = unicodeRanges;
value = (
57,
86
);
},
{
name = codePageRanges;
value = (
1252
);
}
);
date = "2016-11-10 17:43:38 +0000";
designer = "Monotype Design Team";
designerURL = "http://www.monotype.com/studio";
familyName = "Noto Sans Gothic";
features = (
{
code = "sub g19 uni0308 by g37;\012sub g19 uni0305' by g40 ;\012sub [g13 g14 g15 g17 g23 g24 g25 g26 g27 ] uni0305' by g41 ;\012sub [g18 g22 g34 ] uni0305' by g42 ;\012";
name = ccmp;
}
);
fontMaster = (
{
ascender = 2189;
capHeight = 1462;
customParameters = (
{
name = typoAscender;
value = 2189;
},
{
name = typoDescender;
value = -600;
},
{
name = typoLineGap;
value = 0;
},
{
name = winAscent;
value = 2189;
},
{
name = winDescent;
value = 600;
},
{
name = hheaAscender;
value = 2189;
},
{
name = hheaDescender;
value = -600;
},
{
name = underlinePosition;
value = -205;
},
{
name = underlineThickness;
value = 102;
}
);
descender = -600;
id = "B58A78BC-1AD3-4891-BF78-A02D6EA71BC4";
weightValue = 400;
widthValue = 5;
xHeight = 1098;
}
);
glyphs = (
{
glyphname = periodcentered;
lastChange = "2016-11-10 17:43:23 +0000";
layers = (
{
layerId = "B58A78BC-1AD3-4891-BF78-A02D6EA71BC4";
paths = (
{
closed = 1;
nodes = (
"353 584 OFFCURVE",
"401 638 OFFCURVE",
"401 723 CURVE SMOOTH",
"401 808 OFFCURVE",
"355 862 OFFCURVE",
"272 862 CURVE SMOOTH",
"192 862 OFFCURVE",
"147 810 OFFCURVE",
"147 723 CURVE SMOOTH",
"147 636 OFFCURVE",
"193 584 OFFCURVE",
"272 584 CURVE SMOOTH"
);
}
);
width = 549;
}
);
note = periodcentered;
unicode = 00B7;
},
{
glyphname = colon;
lastChange = "2016-11-10 17:43:23 +0000";
layers = (
{
layerId = "B58A78BC-1AD3-4891-BF78-A02D6EA71BC4";
paths = (
{
closed = 1;
nodes = (
"353 848 OFFCURVE",
"401 902 OFFCURVE",
"401 987 CURVE SMOOTH",
"401 1076 OFFCURVE",
"356 1126 OFFCURVE",
"272 1126 CURVE SMOOTH",
"189 1126 OFFCURVE",
"147 1075 OFFCURVE",
"147 987 CURVE SMOOTH",
"147 900 OFFCURVE",
"193 848 OFFCURVE",
"272 848 CURVE SMOOTH"
);
},
{
closed = 1;
nodes = (
"353 -29 OFFCURVE",
"401 24 OFFCURVE",
"401 111 CURVE SMOOTH",
"401 199 OFFCURVE",
"353 248 OFFCURVE",
"272 248 CURVE SMOOTH",
"192 248 OFFCURVE",
"147 199 OFFCURVE",
"147 111 CURVE SMOOTH",
"147 23 OFFCURVE",
"193 -29 OFFCURVE",
"272 -29 CURVE SMOOTH"
);
}
);
width = 549;
}
);
note = colon;
unicode = 003A;
},
{
glyphname = .notdef;
lastChange = "2016-11-10 17:43:23 +0000";
layers = (
{
layerId = "B58A78BC-1AD3-4891-BF78-A02D6EA71BC4";
paths = (
{
closed = 1;
nodes = (
"1034 0 LINE",
"1034 1462 LINE",
"193 1462 LINE",
"193 0 LINE"
);
},
{
closed = 1;
nodes = (
"297 1358 LINE",
"930 1358 LINE",
"930 104 LINE",
"297 104 LINE"
);
}
);
width = 1229;
}
);
note = .notdef;
},
{
glyphname = uni0305;
lastChange = "2016-11-10 17:37:31 +0000";
layers = (
{
layerId = "B58A78BC-1AD3-4891-BF78-A02D6EA71BC4";
paths = (
{
closed = 1;
nodes = (
"1350 1852 LINE",
"1350 1997 LINE",
"-10 1997 LINE",
"-10 1852 LINE"
);
}
);
width = 0;
}
);
note = uni0305;
unicode = 0305;
},
{
glyphname = g10;
lastChange = "2016-11-10 17:37:31 +0000";
layers = (
{
layerId = "B58A78BC-1AD3-4891-BF78-A02D6EA71BC4";
paths = (
{
closed = 1;
nodes = (
"395 -303 LINE",
"395 424 LINE SMOOTH",
"395 611 OFFCURVE",
"429 755 OFFCURVE",
"496 856 CURVE",
"1040 0 LINE",
"1255 0 LINE",
"408 1323 LINE",
"195 1323 LINE",
"477 885 LINE",
"309 885 LINE",
"244 782 OFFCURVE",
"211 634 OFFCURVE",
"211 442 CURVE SMOOTH",
"211 -385 LINE"
);
}
);
width = 1247;
}
);
note = g10;
unicode = 10330;
},
{
glyphname = g11;
lastChange = "2016-11-10 17:43:23 +0000";
layers = (
{
layerId = "B58A78BC-1AD3-4891-BF78-A02D6EA71BC4";
paths = (
{
closed = 1;
nodes = (
"586 0 LINE SMOOTH",
"954 0 OFFCURVE",
"1188 164 OFFCURVE",
"1188 424 CURVE SMOOTH",
"1188 627 OFFCURVE",
"1021 758 OFFCURVE",
"729 778 CURVE",
"729 786 LINE",
"913 859 OFFCURVE",
"987 955 OFFCURVE",
"987 1094 CURVE SMOOTH",
"987 1230 OFFCURVE",
"898 1330 OFFCURVE",
"733 1378 CURVE",
"659 1247 LINE",
"742 1216 OFFCURVE",
"797 1156 OFFCURVE",
"797 1069 CURVE SMOOTH",
"797 961 OFFCURVE",
"727 892 OFFCURVE",
"518 827 CURVE",
"518 688 LINE",
"843 665 OFFCURVE",
"997 579 OFFCURVE",
"997 412 CURVE SMOOTH",
"997 247 OFFCURVE",
"831 156 OFFCURVE",
"551 156 CURVE SMOOTH",
"383 156 LINE",
"383 1323 LINE",
"199 1323 LINE",
"199 0 LINE"
);
}
);
width = 1292;
}
);
note = g11;
unicode = 10331;
},
{
glyphname = g12;
lastChange = "2016-11-10 17:43:23 +0000";
layers = (
{
layerId = "B58A78BC-1AD3-4891-BF78-A02D6EA71BC4";
paths = (
{
closed = 1;
nodes = (
"383 0 LINE",
"383 1159 LINE",
"1024 1159 LINE",
"1024 1323 LINE",
"199 1323 LINE",
"199 0 LINE"
);
}
);
width = 1073;
}
);
note = g12;
unicode = 10332;
},
{
glyphname = g13;
lastChange = "2016-11-10 17:43:23 +0000";
layers = (
{
layerId = "B58A78BC-1AD3-4891-BF78-A02D6EA71BC4";
paths = (
{
closed = 1;
nodes = (
"776 -20 OFFCURVE",
"954 126 OFFCURVE",
"979 350 CURVE",
"1202 0 LINE",
"1419 0 LINE",
"569 1323 LINE",
"354 1323 LINE",
"729 741 LINE SMOOTH",
"794 641 OFFCURVE",
"829 551 OFFCURVE",
"829 432 CURVE SMOOTH",
"829 375 OFFCURVE",
"818 325 OFFCURVE",
"795 280 CURVE SMOOTH",
"750 191 OFFCURVE",
"662 135 OFFCURVE",
"547 135 CURVE SMOOTH",
"382 135 OFFCURVE",
"283 245 OFFCURVE",
"283 416 CURVE SMOOTH",
"283 516 OFFCURVE",
"329 618 OFFCURVE",
"397 682 CURVE",
"195 682 LINE",
"126 603 OFFCURVE",
"92 507 OFFCURVE",
"92 393 CURVE SMOOTH",
"92 140 OFFCURVE",
"261 -20 OFFCURVE",
"532 -20 CURVE SMOOTH"
);
}
);
width = 1411;
}
);
note = g13;
unicode = 10333;
},
{
glyphname = g14;
lastChange = "2016-11-10 17:43:23 +0000";
layers = (
{
layerId = "B58A78BC-1AD3-4891-BF78-A02D6EA71BC4";
paths = (
{
closed = 1;
nodes = (
"1000 -20 OFFCURVE",
"1188 64 OFFCURVE",
"1315 215 CURVE",
"1214 330 LINE",
"1101 209 OFFCURVE",
"968 141 OFFCURVE",
"791 141 CURVE SMOOTH",
"515 141 OFFCURVE",
"332 313 OFFCURVE",
"319 596 CURVE",
"1200 596 LINE",
"1200 756 LINE",
"324 756 LINE",
"351 1013 OFFCURVE",
"535 1178 OFFCURVE",
"803 1178 CURVE SMOOTH",
"962 1178 OFFCURVE",
"1095 1125 OFFCURVE",
"1202 1018 CURVE",
"1305 1153 LINE",
"1184 1277 OFFCURVE",
"1008 1341 OFFCURVE",
"813 1341 CURVE SMOOTH",
"680 1341 OFFCURVE",
"561 1313 OFFCURVE",
"456 1256 CURVE SMOOTH",
"246 1143 OFFCURVE",
"125 923 OFFCURVE",
"125 647 CURVE SMOOTH",
"125 239 OFFCURVE",
"376 -20 OFFCURVE",
"780 -20 CURVE SMOOTH"
);
}
);
width = 1366;
}
);
note = g14;
unicode = 10334;
},
{
glyphname = g15;
lastChange = "2016-11-10 17:43:23 +0000";
layers = (
{
layerId = "B58A78BC-1AD3-4891-BF78-A02D6EA71BC4";
paths = (
{
closed = 1;
nodes = (
"987 -20 OFFCURVE",
"1156 2 OFFCURVE",
"1319 45 CURVE",
"1319 1323 LINE",
"1135 1323 LINE",
"1135 170 LINE",
"1046 149 OFFCURVE",
"938 139 OFFCURVE",
"811 139 CURVE SMOOTH",
"508 139 OFFCURVE",
"377 271 OFFCURVE",
"377 563 CURVE SMOOTH",
"377 1323 LINE",
"193 1323 LINE",
"193 539 LINE SMOOTH",
"193 163 OFFCURVE",
"400 -20 OFFCURVE",
"811 -20 CURVE SMOOTH"
);
}
);
width = 1518;
}
);
note = g15;
unicode = 10335;
},
{
glyphname = g16;
lastChange = "2016-11-10 17:43:23 +0000";
layers = (
{
layerId = "B58A78BC-1AD3-4891-BF78-A02D6EA71BC4";
paths = (
{
closed = 1;
nodes = (
"1223 0 LINE",
"1223 164 LINE",
"319 164 LINE",
"1112 1184 LINE",
"1112 1323 LINE",
"61 1323 LINE",
"61 1159 LINE",
"891 1159 LINE",
"98 139 LINE",
"98 0 LINE"
);
}
);
width = 1274;
}
);
note = g16;
unicode = 10336;
},
{
glyphname = g17;
lastChange = "2016-11-10 17:43:23 +0000";
layers = (
{
layerId = "B58A78BC-1AD3-4891-BF78-A02D6EA71BC4";
paths = (
{
closed = 1;
nodes = (
"383 0 LINE",
"383 1145 LINE",
"471 1166 OFFCURVE",
"566 1176 OFFCURVE",
"668 1176 CURVE SMOOTH",
"1005 1176 OFFCURVE",
"1141 1051 OFFCURVE",
"1141 752 CURVE SMOOTH",
"1141 0 LINE",
"1325 0 LINE",
"1325 776 LINE SMOOTH",
"1325 1156 OFFCURVE",
"1111 1335 OFFCURVE",
"684 1335 CURVE SMOOTH",
"570 1335 OFFCURVE",
"470 1327 OFFCURVE",
"383 1311 CURVE",
"383 1708 LINE",
"199 1708 LINE",
"199 0 LINE"
);
}
);
width = 1518;
}
);
note = g17;
unicode = 10337;
},
{
glyphname = g18;
lastChange = "2016-11-10 17:43:23 +0000";
layers = (
{
layerId = "B58A78BC-1AD3-4891-BF78-A02D6EA71BC4";
paths = (
{
closed = 1;
nodes = (
"1014 -410 LINE",
"1014 104 LINE",
"1157 115 OFFCURVE",
"1282 154 OFFCURVE",
"1389 223 CURVE SMOOTH",
"1603 360 OFFCURVE",
"1722 603 OFFCURVE",
"1722 918 CURVE SMOOTH",
"1722 1062 OFFCURVE",
"1681 1240 OFFCURVE",
"1636 1323 CURVE",
"1446 1323 LINE",
"1495 1220 OFFCURVE",
"1532 1058 OFFCURVE",
"1532 926 CURVE SMOOTH",
"1532 799 OFFCURVE",
"1511 689 OFFCURVE",
"1470 594 CURVE SMOOTH",
"1386 404 OFFCURVE",
"1226 292 OFFCURVE",
"1014 272 CURVE",
"1014 1708 LINE",
"829 1708 LINE",
"829 272 LINE",
"724 282 OFFCURVE",
"632 314 OFFCURVE",
"554 369 CURVE SMOOTH",
"397 478 OFFCURVE",
"311 671 OFFCURVE",
"311 926 CURVE SMOOTH",
"311 1049 OFFCURVE",
"351 1223 OFFCURVE",
"399 1323 CURVE",
"207 1323 LINE",
"160 1227 OFFCURVE",
"121 1049 OFFCURVE",
"121 918 CURVE SMOOTH",
"121 761 OFFCURVE",
"150 624 OFFCURVE",
"207 505 CURVE SMOOTH",
"322 267 OFFCURVE",
"544 125 OFFCURVE",
"829 104 CURVE",
"829 -492 LINE"
);
}
);
width = 1839;
}
);
note = g18;
unicode = 10338;
},
{
glyphname = g19;
lastChange = "2016-11-10 17:43:23 +0000";
layers = (
{
layerId = "B58A78BC-1AD3-4891-BF78-A02D6EA71BC4";
paths = (
{
closed = 1;
nodes = (
"383 0 LINE",
"383 1323 LINE",
"199 1323 LINE",
"199 0 LINE"
);
}
);
width = 582;
}
);
note = g19;
unicode = 10339;
},
{
glyphname = g20;
lastChange = "2016-11-10 17:43:23 +0000";
layers = (
{
layerId = "B58A78BC-1AD3-4891-BF78-A02D6EA71BC4";
paths = (
{
closed = 1;
nodes = (
"383 0 LINE",
"383 664 LINE",
"1047 0 LINE",
"1300 0 LINE",
"610 682 LINE",
"811 798 OFFCURVE",
"940 890 OFFCURVE",
"1023 974 CURVE SMOOTH",
"1106 1058 OFFCURVE",
"1154 1134 OFFCURVE",
"1217 1323 CURVE",
"1022 1323 LINE",
"963 1155 OFFCURVE",
"915 1094 OFFCURVE",
"822 1012 CURVE SMOOTH",
"729 930 OFFCURVE",
"588 837 OFFCURVE",
"383 721 CURVE",
"383 1323 LINE",
"199 1323 LINE",
"199 0 LINE"
);
}
);
width = 1315;
}
);
note = g20;
unicode = 1033A;
},
{
glyphname = g21;
lastChange = "2016-11-10 17:43:23 +0000";
layers = (
{
layerId = "B58A78BC-1AD3-4891-BF78-A02D6EA71BC4";
paths = (
{
closed = 1;
nodes = (
"242 0 LINE",
"571 842 LINE",
"1108 0 LINE",
"1323 0 LINE",
"475 1323 LINE",
"262 1323 LINE",
"461 1012 LINE",
"49 0 LINE"
);
}
);
width = 1315;
}
);
note = g21;
unicode = 1033B;
},
{
glyphname = g22;
lastChange = "2016-11-10 17:43:23 +0000";
layers = (
{
layerId = "B58A78BC-1AD3-4891-BF78-A02D6EA71BC4";
paths = (
{
closed = 1;
nodes = (
"383 0 LINE",
"383 961 LINE",
"455 784 OFFCURVE",
"646 633 OFFCURVE",
"813 633 CURVE SMOOTH",
"990 633 OFFCURVE",
"1175 781 OFFCURVE",
"1255 961 CURVE",
"1255 0 LINE",
"1440 0 LINE",
"1440 1323 LINE",
"1255 1323 LINE",
"1238 1242 OFFCURVE",
"1206 1161 OFFCURVE",
"1159 1081 CURVE SMOOTH",
"1065 921 OFFCURVE",
"935 817 OFFCURVE",
"819 817 CURVE SMOOTH",
"761 817 OFFCURVE",
"702 840 OFFCURVE",
"642 887 CURVE SMOOTH",
"521 980 OFFCURVE",
"415 1162 OFFCURVE",
"383 1323 CURVE",
"199 1323 LINE",
"199 0 LINE"
);
}
);
width = 1640;
}
);
note = g22;
unicode = 1033C;
},
{
glyphname = g23;
lastChange = "2016-11-10 17:43:23 +0000";
layers = (
{
layerId = "B58A78BC-1AD3-4891-BF78-A02D6EA71BC4";
paths = (
{
closed = 1;
nodes = (
"383 0 LINE",
"383 592 LINE SMOOTH",
"383 769 OFFCURVE",
"377 924 OFFCURVE",
"365 1059 CURVE",
"373 1059 LINE",
"1174 0 LINE",
"1358 0 LINE",
"1358 1323 LINE",
"1174 1323 LINE",
"1174 674 LINE SMOOTH",
"1174 505 OFFCURVE",
"1179 369 OFFCURVE",
"1190 268 CURVE",
"1182 268 LINE",
"1168 292 OFFCURVE",
"1081 408 OFFCURVE",
"921 616 CURVE SMOOTH",
"644 976 LINE SMOOTH",
"484 1183 OFFCURVE",
"397 1299 OFFCURVE",
"383 1323 CURVE",
"199 1323 LINE",
"199 0 LINE"
);
}
);
width = 1556;
}
);
note = g23;
unicode = 1033D;
},
{
glyphname = g24;
lastChange = "2016-11-10 17:43:23 +0000";
layers = (
{
layerId = "B58A78BC-1AD3-4891-BF78-A02D6EA71BC4";
paths = (
{
closed = 1;
nodes = (
"1051 -492 LINE",
"1246 -300 OFFCURVE",
"1343 -66 OFFCURVE",
"1343 209 CURVE SMOOTH",
"1343 276 OFFCURVE",
"1331 385 OFFCURVE",
"1319 428 CURVE",
"1151 428 LINE",
"1094 247 OFFCURVE",
"947 139 OFFCURVE",
"762 139 CURVE SMOOTH",
"490 139 OFFCURVE",
"317 335 OFFCURVE",
"317 651 CURVE SMOOTH",
"317 974 OFFCURVE",
"503 1178 OFFCURVE",
"803 1178 CURVE SMOOTH",
"962 1178 OFFCURVE",
"1093 1131 OFFCURVE",
"1221 1014 CURVE",
"1325 1153 LINE",
"1206 1276 OFFCURVE",
"1025 1341 OFFCURVE",
"805 1341 CURVE SMOOTH",
"670 1341 OFFCURVE",
"551 1313 OFFCURVE",
"448 1256 CURVE SMOOTH",
"240 1142 OFFCURVE",
"125 922 OFFCURVE",
"125 647 CURVE SMOOTH",
"125 515 OFFCURVE",
"151 399 OFFCURVE",
"202 298 CURVE SMOOTH",
"304 96 OFFCURVE",
"498 -20 OFFCURVE",
"739 -20 CURVE SMOOTH",
"923 -20 OFFCURVE",
"1064 46 OFFCURVE",
"1161 178 CURVE",
"1161 139 LINE SMOOTH",
"1161 -86 OFFCURVE",
"1050 -297 OFFCURVE",
"827 -492 CURVE"
);
}
);
width = 1460;
}
);
note = g24;
unicode = 1033E;
},
{
glyphname = g25;
lastChange = "2016-11-10 17:43:23 +0000";
layers = (
{
layerId = "B58A78BC-1AD3-4891-BF78-A02D6EA71BC4";
paths = (
{
closed = 1;
nodes = (
"383 0 LINE",
"383 1149 LINE",
"471 1170 OFFCURVE",
"579 1180 OFFCURVE",
"707 1180 CURVE SMOOTH",
"1010 1180 OFFCURVE",
"1141 1048 OFFCURVE",
"1141 756 CURVE SMOOTH",
"1141 0 LINE",
"1325 0 LINE",
"1325 780 LINE SMOOTH",
"1325 1153 OFFCURVE",
"1119 1339 OFFCURVE",
"707 1339 CURVE SMOOTH",
"548 1339 OFFCURVE",
"352 1315 OFFCURVE",
"199 1274 CURVE",
"199 0 LINE"
);
}
);
width = 1518;
}
);
note = g25;
unicode = 1033F;
},
{
glyphname = g26;
lastChange = "2016-11-10 17:43:23 +0000";
layers = (
{
layerId = "B58A78BC-1AD3-4891-BF78-A02D6EA71BC4";
paths = (
{
closed = 1;
nodes = (
"383 0 LINE",
"383 1161 LINE",
"1112 1161 LINE",
"1112 0 LINE",
"1296 0 LINE",
"1296 1323 LINE",
"199 1323 LINE",
"199 0 LINE"
);
}
);
width = 1497;
}
);
note = g26;
unicode = 10340;
},
{
glyphname = g27;
lastChange = "2016-11-10 17:43:23 +0000";
layers = (
{
layerId = "B58A78BC-1AD3-4891-BF78-A02D6EA71BC4";
paths = (
{
closed = 1;
nodes = (
"1255 -410 LINE",
"1255 1323 LINE",
"1071 1323 LINE",
"1071 358 LINE",
"938 311 OFFCURVE",
"807 287 OFFCURVE",
"676 287 CURVE SMOOTH",
"480 287 OFFCURVE",
"373 399 OFFCURVE",
"373 602 CURVE SMOOTH",
"373 1323 LINE",
"188 1323 LINE",
"188 575 LINE SMOOTH",
"188 287 OFFCURVE",
"357 125 OFFCURVE",
"653 125 CURVE SMOOTH",
"788 125 OFFCURVE",
"928 152 OFFCURVE",
"1071 205 CURVE",
"1071 -492 LINE"
);
}
);
width = 1454;
}
);
note = g27;
unicode = 10341;
},
{
glyphname = g28;
lastChange = "2016-11-10 17:43:23 +0000";
layers = (
{
layerId = "B58A78BC-1AD3-4891-BF78-A02D6EA71BC4";
paths = (
{
closed = 1;
nodes = (
"383 -410 LINE",
"383 639 LINE",
"1040 0 LINE",
"1309 0 LINE",
"635 637 LINE",
"901 728 OFFCURVE",
"1034 863 OFFCURVE",
"1034 1042 CURVE SMOOTH",
"1034 1211 OFFCURVE",
"913 1313 OFFCURVE",
"696 1374 CURVE",
"627 1233 LINE",
"790 1178 OFFCURVE",
"844 1121 OFFCURVE",
"844 1018 CURVE SMOOTH",
"844 952 OFFCURVE",
"808 892 OFFCURVE",
"735 839 CURVE SMOOTH",
"662 785 OFFCURVE",
"544 732 OFFCURVE",
"383 680 CURVE",
"383 1323 LINE",
"199 1323 LINE",
"199 -492 LINE"
);
}
);
width = 1300;
}
);
note = g28;
unicode = 10342;
},
{
glyphname = g29;
lastChange = "2016-11-10 17:43:23 +0000";
layers = (
{
layerId = "B58A78BC-1AD3-4891-BF78-A02D6EA71BC4";
paths = (
{
closed = 1;
nodes = (
"882 -20 OFFCURVE",
"1073 115 OFFCURVE",
"1073 358 CURVE SMOOTH",
"1073 426 OFFCURVE",
"1058 483 OFFCURVE",
"1029 530 CURVE SMOOTH",
"970 622 OFFCURVE",
"876 677 OFFCURVE",
"621 733 CURVE SMOOTH",
"524 754 OFFCURVE",
"453 775 OFFCURVE",
"409 795 CURVE SMOOTH",
"320 834 OFFCURVE",
"283 886 OFFCURVE",
"283 977 CURVE SMOOTH",
"283 1113 OFFCURVE",
"392 1186 OFFCURVE",
"596 1186 CURVE SMOOTH",
"752 1186 OFFCURVE",
"877 1148 OFFCURVE",
"989 1053 CURVE",
"1083 1198 LINE",
"980 1294 OFFCURVE",
"809 1348 OFFCURVE",
"604 1348 CURVE SMOOTH",
"292 1348 OFFCURVE",
"96 1207 OFFCURVE",
"96 971 CURVE SMOOTH",
"96 774 OFFCURVE",
"202 665 OFFCURVE",
"494 594 CURVE SMOOTH",
"619 564 OFFCURVE",
"706 539 OFFCURVE",
"753 518 CURVE SMOOTH",
"848 476 OFFCURVE",
"889 426 OFFCURVE",
"889 346 CURVE SMOOTH",
"889 208 OFFCURVE",
"779 139 OFFCURVE",
"559 139 CURVE SMOOTH",
"406 139 OFFCURVE",
"234 192 OFFCURVE",
"113 260 CURVE",
"113 78 LINE",
"234 13 OFFCURVE",
"378 -20 OFFCURVE",
"547 -20 CURVE SMOOTH"
);
}
);
width = 1176;
}
);
note = g29;
unicode = 10343;
},
{
glyphname = g30;
lastChange = "2016-11-10 17:43:23 +0000";
layers = (
{
layerId = "B58A78BC-1AD3-4891-BF78-A02D6EA71BC4";
paths = (
{
closed = 1;
nodes = (
"662 0 LINE",
"662 1161 LINE",
"1116 1161 LINE",
"1116 1323 LINE",
"20 1323 LINE",
"20 1161 LINE",
"477 1161 LINE",
"477 0 LINE"
);
}
);
width = 1139;
}
);
note = g30;
unicode = 10344;
},
{
glyphname = g31;
lastChange = "2016-11-10 17:43:23 +0000";
layers = (
{
layerId = "B58A78BC-1AD3-4891-BF78-A02D6EA71BC4";
paths = (
{
closed = 1;
nodes = (
"743 -410 LINE",
"743 317 LINE",
"1292 1323 LINE",
"1094 1323 LINE",
"651 494 LINE",
"199 1323 LINE",
"-12 1323 LINE",
"559 309 LINE",
"559 -492 LINE"
);
}
);
width = 1282;
}
);
note = g31;
unicode = 10345;
},
{
glyphname = g32;
lastChange = "2016-11-10 17:43:23 +0000";
layers = (
{
layerId = "B58A78BC-1AD3-4891-BF78-A02D6EA71BC4";
paths = (
{
closed = 1;
nodes = (
"383 -410 LINE",
"383 461 LINE",
"977 461 LINE",
"977 623 LINE",
"383 623 LINE",
"383 1161 LINE",
"977 1161 LINE",
"977 1323 LINE",
"383 1323 LINE",
"383 1708 LINE",
"199 1708 LINE",
"199 -492 LINE"
);
}
);
width = 1038;
}
);
note = g32;
unicode = 10346;
},
{
glyphname = g33;
lastChange = "2016-11-10 17:43:23 +0000";
layers = (
{
layerId = "B58A78BC-1AD3-4891-BF78-A02D6EA71BC4";
paths = (
{
closed = 1;
nodes = (
"203 0 LINE",
"596 573 LINE",
"983 0 LINE",
"1202 0 LINE",
"717 692 LINE",
"1169 1323 LINE",
"963 1323 LINE",
"602 805 LINE",
"244 1323 LINE",
"31 1323 LINE",
"481 688 LINE",
"-2 0 LINE"
);
}
);
width = 1200;
}
);
note = g33;
unicode = 10347;
},
{
glyphname = g34;
lastChange = "2016-11-10 17:43:23 +0000";
layers = (
{
layerId = "B58A78BC-1AD3-4891-BF78-A02D6EA71BC4";
paths = (
{
closed = 1;
nodes = (
"932 -20 OFFCURVE",
"1050 9 OFFCURVE",
"1153 67 CURVE SMOOTH",
"1359 182 OFFCURVE",
"1475 402 OFFCURVE",
"1475 662 CURVE SMOOTH",
"1475 800 OFFCURVE",
"1448 921 OFFCURVE",
"1393 1025 CURVE SMOOTH",
"1284 1232 OFFCURVE",
"1074 1346 OFFCURVE",
"803 1346 CURVE SMOOTH",
"674 1346 OFFCURVE",
"557 1317 OFFCURVE",
"453 1260 CURVE SMOOTH",
"245 1144 OFFCURVE",
"125 925 OFFCURVE",
"125 664 CURVE SMOOTH",
"125 529 OFFCURVE",
"152 410 OFFCURVE",
"207 306 CURVE SMOOTH",
"316 98 OFFCURVE",
"526 -20 OFFCURVE",
"801 -20 CURVE SMOOTH"
);
},
{
closed = 1;
nodes = (
"705 139 OFFCURVE",
"621 161 OFFCURVE",
"548 204 CURVE SMOOTH",
"403 290 OFFCURVE",
"319 457 OFFCURVE",
"319 662 CURVE SMOOTH",
"319 978 OFFCURVE",
"510 1184 OFFCURVE",
"803 1184 CURVE SMOOTH",
"1099 1184 OFFCURVE",
"1280 977 OFFCURVE",
"1280 662 CURVE SMOOTH",
"1280 341 OFFCURVE",
"1098 139 OFFCURVE",
"801 139 CURVE SMOOTH"
);
},
{
closed = 1;
nodes = (
"880 524 OFFCURVE",
"928 577 OFFCURVE",
"928 664 CURVE SMOOTH",
"928 749 OFFCURVE",
"882 803 OFFCURVE",
"799 803 CURVE SMOOTH",
"718 803 OFFCURVE",
"674 753 OFFCURVE",
"674 664 CURVE SMOOTH",
"674 572 OFFCURVE",
"720 524 OFFCURVE",
"799 524 CURVE SMOOTH"
);
}
);
width = 1599;
}
);
note = g34;
unicode = 10348;
},
{
glyphname = g35;
lastChange = "2016-11-10 17:43:23 +0000";
layers = (
{
layerId = "B58A78BC-1AD3-4891-BF78-A02D6EA71BC4";
paths = (
{
closed = 1;
nodes = (
"176 -221 LINE",
"371 24 OFFCURVE",
"496 182 OFFCURVE",
"549 254 CURVE",
"616 185 OFFCURVE",
"705 101 OFFCURVE",
"817 0 CURVE",
"1096 0 LINE",
"905 159 OFFCURVE",
"758 291 OFFCURVE",
"653 395 CURVE",
"868 695 OFFCURVE",
"950 899 OFFCURVE",
"950 1106 CURVE SMOOTH",
"950 1182 OFFCURVE",
"937 1254 OFFCURVE",
"911 1323 CURVE",
"168 1323 LINE",
"135 1254 OFFCURVE",
"119 1177 OFFCURVE",
"119 1092 CURVE SMOOTH",
"119 836 OFFCURVE",
"209 634 OFFCURVE",
"434 377 CURVE",
"315 218 OFFCURVE",
"152 19 OFFCURVE",
"-53 -221 CURVE"
);
},
{
closed = 1;
nodes = (
"375 709 OFFCURVE",
"303 884 OFFCURVE",
"303 1085 CURVE SMOOTH",
"303 1115 OFFCURVE",
"305 1141 OFFCURVE",
"309 1163 CURVE",
"758 1163 LINE",
"763 1144 OFFCURVE",
"766 1121 OFFCURVE",
"766 1094 CURVE SMOOTH",
"766 901 OFFCURVE",
"702 753 OFFCURVE",
"539 518 CURVE"
);
}
);
width = 1059;
}
);
note = g35;
unicode = 10349;
},
{
glyphname = g36;
lastChange = "2016-11-10 17:43:23 +0000";
layers = (
{
layerId = "B58A78BC-1AD3-4891-BF78-A02D6EA71BC4";
paths = (
{
closed = 1;
nodes = (
"567 -410 LINE",
"567 1147 LINE",
"840 961 LINE",
"918 1079 LINE",
"475 1378 LINE",
"33 1079 LINE",
"111 961 LINE",
"383 1147 LINE",
"383 -492 LINE"
);
}
);
width = 950;
}
);
note = g36;
unicode = 1034A;
},
{
glyphname = g37;
lastChange = "2016-11-10 17:43:23 +0000";
layers = (
{
layerId = "B58A78BC-1AD3-4891-BF78-A02D6EA71BC4";
paths = (
{
closed = 1;
nodes = (
"383 0 LINE",
"383 1323 LINE",
"199 1323 LINE",
"199 0 LINE"
);
},
{
closed = 1;
nodes = (
"152 1556 OFFCURVE",
"197 1588 OFFCURVE",
"197 1659 CURVE SMOOTH",
"197 1731 OFFCURVE",
"152 1759 OFFCURVE",
"100 1759 CURVE SMOOTH",
"47 1759 OFFCURVE",
"4 1731 OFFCURVE",
"4 1659 CURVE SMOOTH",
"4 1588 OFFCURVE",
"47 1556 OFFCURVE",
"100 1556 CURVE SMOOTH"
);
},
{
closed = 1;
nodes = (
"535 1556 OFFCURVE",
"580 1588 OFFCURVE",
"580 1659 CURVE SMOOTH",
"580 1731 OFFCURVE",
"535 1759 OFFCURVE",
"483 1759 CURVE SMOOTH",
"432 1759 OFFCURVE",
"389 1731 OFFCURVE",
"389 1659 CURVE SMOOTH",
"389 1588 OFFCURVE",
"432 1556 OFFCURVE",
"483 1556 CURVE SMOOTH"
);
}
);
width = 582;
}
);
note = g37;
},
{
glyphname = g38;
lastChange = "2016-11-10 17:37:31 +0000";
layers = (
{
layerId = "B58A78BC-1AD3-4891-BF78-A02D6EA71BC4";
paths = (
{
closed = 1;
nodes = (
"907 1241 LINE",
"907 1386 LINE",
"299 1386 LINE",
"299 1241 LINE"
);
}
);
width = 1206;
}
);
note = g38;
},
{
glyphname = g39;
lastChange = "2016-11-10 17:43:23 +0000";
layers = (
{
layerId = "B58A78BC-1AD3-4891-BF78-A02D6EA71BC4";
paths = (
{
closed = 1;
nodes = (
"453 1292 OFFCURVE",
"498 1324 OFFCURVE",
"498 1395 CURVE SMOOTH",
"498 1466 OFFCURVE",
"453 1495 OFFCURVE",
"401 1495 CURVE SMOOTH",
"348 1495 OFFCURVE",
"305 1466 OFFCURVE",
"305 1395 CURVE SMOOTH",
"305 1324 OFFCURVE",
"348 1292 OFFCURVE",
"401 1292 CURVE SMOOTH"
);
},
{
closed = 1;
nodes = (
"836 1292 OFFCURVE",
"881 1324 OFFCURVE",
"881 1395 CURVE SMOOTH",
"881 1466 OFFCURVE",
"836 1495 OFFCURVE",
"784 1495 CURVE SMOOTH",
"733 1495 OFFCURVE",
"690 1466 OFFCURVE",
"690 1395 CURVE SMOOTH",
"690 1324 OFFCURVE",
"733 1292 OFFCURVE",
"784 1292 CURVE SMOOTH"
);
}
);
width = 1188;
}
);
note = g39;
},
{
glyphname = g40;
lastChange = "2016-11-10 17:37:31 +0000";
layers = (
{
layerId = "B58A78BC-1AD3-4891-BF78-A02D6EA71BC4";
paths = (
{
closed = 1;
nodes = (
"605 1852 LINE",
"605 1997 LINE",
"-10 1997 LINE",
"-10 1852 LINE"
);
}
);
width = 0;
}
);
note = g40;
},
{
glyphname = g41;
lastChange = "2016-11-10 17:37:31 +0000";
layers = (
{
layerId = "B58A78BC-1AD3-4891-BF78-A02D6EA71BC4";
paths = (
{
closed = 1;
nodes = (
"1560 1852 LINE",
"1560 1997 LINE",
"-10 1997 LINE",
"-10 1852 LINE"
);
}
);
width = 0;
}
);
note = g41;
},
{
glyphname = g42;
lastChange = "2016-11-10 17:37:31 +0000";
layers = (
{
layerId = "B58A78BC-1AD3-4891-BF78-A02D6EA71BC4";
paths = (
{
closed = 1;
nodes = (
"1860 1852 LINE",
"1860 1997 LINE",
"-10 1997 LINE",
"-10 1852 LINE"
);
}
